<svg width="157" height="195" viewBox="0 0 157 195" fill="none" xmlns="http://www.w3.org/2000/svg">
<path d="M0.024355 49.9057C-0.41322 43.3073 5.10526 37.8346 11.7589 38.2685L33.7857 39.7051C36.4561 39.8793 38.9716 41.0099 40.864 42.8865L76.2698 77.9985C78.1622 79.8751 79.3023 82.3698 79.4779 85.018L80.9265 106.862C81.3641 113.46 75.8456 118.933 69.1919 118.499L47.1651 117.063C44.4948 116.888 41.9792 115.758 40.0869 113.881L4.68101 78.7691C2.78868 76.8925 1.64856 74.3978 1.47294 71.7496L0.024355 49.9057Z" fill="#1B6408"/>
<path d="M156.976 11.6613C157.413 5.06289 151.895 -0.40979 145.241 0.0241528L123.214 1.46071C120.544 1.63487 118.028 2.76553 116.136 4.64215L80.7302 39.7541C78.8378 41.6307 77.6977 44.1254 77.5221 46.7736L76.0735 68.6176C75.6359 75.216 81.1544 80.6886 87.8081 80.2547L109.835 78.8181C112.505 78.644 115.021 77.5133 116.913 75.6367L152.319 40.5248C154.211 38.6481 155.351 36.1535 155.527 33.5052L156.976 11.6613Z" fill="#1B6408"/>
<path d="M0.024355 126.382C-0.41322 119.784 5.10526 114.311 11.7589 114.745L33.7857 116.182C36.4561 116.356 38.9716 117.487 40.864 119.363L76.2698 154.475C78.1622 156.352 79.3023 158.847 79.4779 161.495L80.9265 183.339C81.3641 189.937 75.8456 195.41 69.1919 194.976L47.1651 193.539C44.4948 193.365 41.9792 192.234 40.0869 190.358L4.68101 155.246C2.78868 153.369 1.64856 150.875 1.47294 148.226L0.024355 126.382Z" fill="#1B6408"/>
<path d="M156.976 88.1381C157.413 81.5397 151.895 76.067 145.241 76.5009L123.214 77.9375C120.544 78.1116 118.028 79.2423 116.136 81.1189L80.7302 116.231C78.8378 118.107 77.6977 120.602 77.5221 123.25L76.0735 145.094C75.6359 151.693 81.1544 157.165 87.8081 156.731L109.835 155.295C112.505 155.121 115.021 153.99 116.913 152.113L152.319 117.002C154.211 115.125 155.351 112.63 155.527 109.982L156.976 88.1381Z" fill="#1B6408"/>
<path d="M121.235 177.276C121.235 186.513 113.705 194 104.417 194C95.1292 194 87.5997 186.513 87.5997 177.276C87.5997 168.04 95.1292 160.552 104.417 160.552C113.705 160.552 121.235 168.04 121.235 177.276Z" fill="#FCCD29"/>
</svg>
