<svg width="672" height="260" viewBox="0 0 672 260" fill="none" xmlns="http://www.w3.org/2000/svg">
<path d="M0.024355 82.9057C-0.41322 76.3073 5.10526 70.8346 11.7589 71.2685L33.7857 72.7051C36.4561 72.8793 38.9716 74.0099 40.864 75.8865L76.2698 110.998C78.1622 112.875 79.3023 115.37 79.4779 118.018L80.9265 139.862C81.3641 146.46 75.8456 151.933 69.1919 151.499L47.1651 150.063C44.4948 149.888 41.9792 148.758 40.0869 146.881L4.68101 111.769C2.78868 109.893 1.64856 107.398 1.47294 104.75L0.024355 82.9057Z" fill="#1B6408"/>
<path d="M156.976 44.6613C157.413 38.0629 151.895 32.5902 145.241 33.0242L123.214 34.4607C120.544 34.6349 118.028 35.7655 116.136 37.6422L80.7302 72.7541C78.8378 74.6307 77.6977 77.1254 77.5221 79.7736L76.0735 101.618C75.6359 108.216 81.1544 113.689 87.8081 113.255L109.835 111.818C112.505 111.644 115.021 110.513 116.913 108.637L152.319 73.5248C154.211 71.6481 155.351 69.1535 155.527 66.5052L156.976 44.6613Z" fill="#1B6408"/>
<path d="M0.024355 159.382C-0.41322 152.784 5.10526 147.311 11.7589 147.745L33.7857 149.182C36.4561 149.356 38.9716 150.487 40.864 152.363L76.2698 187.475C78.1622 189.352 79.3023 191.847 79.4779 194.495L80.9265 216.339C81.3641 222.937 75.8456 228.41 69.1919 227.976L47.1651 226.539C44.4948 226.365 41.9792 225.234 40.0869 223.358L4.68101 188.246C2.78868 186.369 1.64856 183.875 1.47294 181.226L0.024355 159.382Z" fill="#1B6408"/>
<path d="M156.976 121.138C157.413 114.54 151.895 109.067 145.241 109.501L123.214 110.937C120.544 111.112 118.028 112.242 116.136 114.119L80.7302 149.231C78.8378 151.107 77.6977 153.602 77.5221 156.25L76.0735 178.094C75.6359 184.693 81.1544 190.165 87.8081 189.731L109.835 188.295C112.505 188.121 115.021 186.99 116.913 185.113L152.319 150.002C154.211 148.125 155.351 145.63 155.527 142.982L156.976 121.138Z" fill="#1B6408"/>
<path d="M121.235 210.276C121.235 219.513 113.705 227 104.417 227C95.1292 227 87.5997 219.513 87.5997 210.276C87.5997 201.04 95.1292 193.552 104.417 193.552C113.705 193.552 121.235 201.04 121.235 210.276Z" fill="#FCCD29"/>
<path d="M258.681 207.703C246.475 207.703 235.475 205.219 225.682 200.252C216.031 195.142 208.438 188.117 202.903 179.175C197.509 170.234 194.813 160.086 194.813 148.732C194.813 137.377 197.509 127.229 202.903 118.288C208.438 109.346 216.031 102.392 225.682 97.4243C235.475 92.3149 246.475 89.7602 258.681 89.7602C270.745 89.7602 281.247 92.3149 290.189 97.4243C299.272 102.392 305.872 109.559 309.988 118.927L284.228 132.765C278.267 122.262 269.68 117.011 258.468 117.011C249.81 117.011 242.643 119.849 236.965 125.526C231.288 131.203 228.45 138.939 228.45 148.732C228.45 158.525 231.288 166.26 236.965 171.937C242.643 177.614 249.81 180.453 258.468 180.453C269.822 180.453 278.409 175.201 284.228 164.699L309.988 178.75C305.872 187.833 299.272 194.93 290.189 200.039C281.247 205.148 270.745 207.703 258.681 207.703ZM444.498 91.4633V186.84C444.498 207.845 439.176 223.457 428.531 233.676C417.887 243.895 402.416 249.004 382.121 249.004C371.334 249.004 361.115 247.656 351.464 244.96C341.955 242.263 333.936 238.36 327.407 233.25L340.606 209.406C345.432 213.38 351.322 216.503 358.277 218.774C365.231 221.044 372.257 222.18 379.353 222.18C390.423 222.18 398.513 219.625 403.623 214.516C408.732 209.406 411.287 201.6 411.287 191.097V187.265C407.029 191.523 401.991 194.788 396.172 197.058C390.352 199.329 384.108 200.465 377.437 200.465C362.392 200.465 350.47 196.207 341.671 187.691C332.871 179.033 328.471 166.118 328.471 148.945V91.4633H361.683V144.048C361.683 162.641 369.418 171.937 384.888 171.937C392.836 171.937 399.223 169.382 404.049 164.273C408.874 159.022 411.287 151.286 411.287 141.067V91.4633H444.498ZM516.355 207.703C503.439 207.703 493.362 204.297 486.124 197.484C478.886 190.53 475.266 180.737 475.266 168.105V48.0331H508.478V166.189C508.478 171.015 509.684 174.776 512.097 177.472C514.652 180.027 518.2 181.304 522.742 181.304C524.445 181.304 526.148 181.091 527.851 180.666C529.696 180.24 531.115 179.743 532.109 179.175L533.599 204.936C528.064 206.781 522.316 207.703 516.355 207.703ZM602.326 207.703C590.262 207.703 579.404 205.219 569.753 200.252C560.244 195.142 552.792 188.117 547.399 179.175C542.006 170.234 539.309 160.086 539.309 148.732C539.309 137.377 542.006 127.229 547.399 118.288C552.792 109.346 560.244 102.392 569.753 97.4243C579.404 92.3149 590.262 89.7602 602.326 89.7602C614.39 89.7602 625.176 92.3149 634.685 97.4243C644.195 102.392 651.646 109.346 657.039 118.288C662.432 127.229 665.129 137.377 665.129 148.732C665.129 160.086 662.432 170.234 657.039 179.175C651.646 188.117 644.195 195.142 634.685 200.252C625.176 205.219 614.39 207.703 602.326 207.703ZM602.326 180.453C610.841 180.453 617.796 177.614 623.189 171.937C628.724 166.118 631.492 158.383 631.492 148.732C631.492 139.08 628.724 131.416 623.189 125.739C617.796 119.92 610.841 117.011 602.326 117.011C593.81 117.011 586.784 119.92 581.249 125.739C575.714 131.416 572.946 139.08 572.946 148.732C572.946 158.383 575.714 166.118 581.249 171.937C586.784 177.614 593.81 180.453 602.326 180.453Z" fill="#1B6408"/>
</svg>
